# xmcd
#
# Track frame offsets:
#	150
#	12748
#	23472
#	36975
#	50066
#	60867
#	76742
#	86155
#	96485
#	114009
#
# Disc length: 1726 seconds
#
# Revision: 0
# Processed by: cddbd v1.5.2PL0 Copyright (c) Steve Scherf et al.
# Submitted via: EasyCDDAExtractor 12.0.1.1
#
DISCID=7206bc0a
DTITLE=Various Artist - Madacy's Best Of Bluegrass Vol. 3
DYEAR=2006
DGENRE=Bluegrass
TTITLE0=Will The Circle Be Unbroken
TTITLE1=Make The World Go Away
TTITLE2=Backseat Driver
TTITLE3=Behind Closed Doors
TTITLE4=Turkey In The Straw
TTITLE5=Wayfaring Stranger
TTITLE6=Going Up To Cripple Creek
TTITLE7=Salty Dog
TTITLE8=Funky Chicken
TTITLE9=I Still Do
EXTD=
EXTT0=
EXTT1=
EXTT2=
EXTT3=
EXTT4=
EXTT5=
EXTT6=
EXTT7=
EXTT8=
EXTT9=
PLAYORDER=
